<?xml version="1.0" encoding="UTF-8"?>
<svg version="1.1" xmlns="http://www.w3.org/2000/svg" width="300" height="300">
<path d="M0 0 C1.08699188 -0.00696899 2.17398376 -0.01393799 3.29391479 -0.02111816 C6.77801435 -0.0384005 10.26195313 -0.04483667 13.74609375 -0.046875 C15.52912399 -0.04838562 15.52912399 -0.04838562 17.34817505 -0.04992676 C34.49536329 -0.04008328 51.23592924 0.37445006 68.18359375 3.203125 C69.09238281 3.34234375 70.00117188 3.4815625 70.9375 3.625 C91.91825545 6.84821705 112.57577318 12.21476812 132.80859375 18.578125 C134.45154419 19.06768677 134.45154419 19.06768677 136.12768555 19.56713867 C143.08014201 21.84484361 147.7211633 24.86448835 152.93066406 30.00634766 C155.9309974 32.93190025 159.21501486 35.38577884 162.56640625 37.890625 C163.10007812 38.32375 163.63375 38.756875 164.18359375 39.203125 C164.18359375 39.533125 164.18359375 39.863125 164.18359375 40.203125 C157.46482112 39.57987494 151.07254875 38.36985469 144.49609375 36.890625 C124.35647515 32.54211791 103.79147378 29.76160413 83.18359375 29.203125 C84.35792969 29.67621094 85.53226563 30.14929688 86.7421875 30.63671875 C117.49892673 43.19942119 146.23063252 60.73824288 169.55224609 84.60253906 C171.19481907 86.21413865 172.90426713 87.68266414 174.68359375 89.140625 C178.62793 92.47275829 181.87749826 96.24903479 185.18359375 100.203125 C185.993125 101.15960938 186.80265625 102.11609375 187.63671875 103.1015625 C190.17884897 106.11406808 192.68438571 109.15491061 195.18359375 112.203125 C195.84617187 112.9971875 196.50875 113.79125 197.19140625 114.609375 C197.74570312 115.3003125 198.3 115.99125 198.87109375 116.703125 C199.34933594 117.2909375 199.82757813 117.87875 200.3203125 118.484375 C201.18359375 120.203125 201.18359375 120.203125 200.890625 122.08178711 C200.12538455 124.37777269 199.16596353 125.91684338 197.734375 127.86328125 C197.22245605 128.56590088 196.71053711 129.26852051 196.18310547 129.99243164 C195.34803467 131.11766235 195.34803467 131.11766235 194.49609375 132.265625 C193.92391113 133.04478271 193.35172852 133.82394043 192.76220703 134.62670898 C191.54152195 136.2879856 190.31846449 137.94752116 189.09326172 139.60546875 C187.14866382 142.250639 185.22835672 144.91208051 183.3125 147.578125 C182.06145948 149.30748092 180.81016445 151.03665275 179.55859375 152.765625 C178.96731689 153.59263916 178.37604004 154.41965332 177.7668457 155.27172852 C177.21085693 156.03412842 176.65486816 156.79652832 176.08203125 157.58203125 C175.59395996 158.2582251 175.10588867 158.93441895 174.60302734 159.63110352 C173.18359375 161.203125 173.18359375 161.203125 170.18359375 162.203125 C169.42175781 161.16414062 168.65992188 160.12515625 167.875 159.0546875 C161.9824844 151.0740614 155.94877234 143.47138928 149.18359375 136.203125 C148.09619009 134.93577274 147.01273781 133.66501762 145.93359375 132.390625 C138.37852341 123.72606881 130.03748134 115.53151169 121.18359375 108.203125 C120.66023437 107.7606543 120.136875 107.31818359 119.59765625 106.86230469 C104.53954231 94.14674668 88.40774695 82.80272979 71.18359375 73.203125 C70.31589355 72.71875977 69.44819336 72.23439453 68.55419922 71.73535156 C36.20782524 53.87808718 1.65958938 42.02539736 -34.81640625 36.203125 C-36.27071045 35.96553467 -36.27071045 35.96553467 -37.75439453 35.72314453 C-57.97061026 32.53724726 -78.39782271 32.48656419 -98.81640625 32.203125 C-96.09693782 29.41251362 -93.4825073 26.77466457 -90.25 24.58984375 C-89.60635498 24.150354 -88.96270996 23.71086426 -88.29956055 23.25805664 C-87.62449463 22.8068042 -86.94942871 22.35555176 -86.25390625 21.890625 C-84.81092769 20.92488281 -83.36822111 19.95873412 -81.92578125 18.9921875 C-80.86907227 18.28497559 -80.86907227 18.28497559 -79.79101562 17.56347656 C-78.07691467 16.38259494 -76.41733049 15.1233255 -74.76953125 13.8515625 C-66.13119113 7.33620427 -57.28750973 5.75509887 -46.81640625 4.203125 C-45.85573242 4.06036133 -44.89505859 3.91759766 -43.90527344 3.77050781 C-29.30017412 1.65692433 -14.7701771 0.06410118 0 0 Z " fill="#000000" transform="translate(98.81640625,68.796875)"/>
<path d="M0 0 C4.95 0 9.9 0 15 0 C15.10917543 12.32469338 15.00810027 24.59979406 14.35571289 36.91015625 C13.88902159 46.30720614 14 55.53861838 14 65 C19.94 43.55 25.88 22.1 32 0 C36.62 0 41.24 0 46 0 C47.50726554 6.4336096 48.64127961 12.83384778 49.5625 19.375 C49.81129746 21.13316875 50.06249508 22.89099998 50.31640625 24.6484375 C50.42412354 25.41333496 50.53184082 26.17823242 50.64282227 26.96630859 C50.98234433 29.19262447 50.98234433 29.19262447 52 32 C54.97 21.44 57.94 10.88 61 0 C66.28 0 71.56 0 77 0 C73.87167342 12.88366237 70.36386577 25.64307373 66.77172852 38.40454102 C65.80182872 41.85041305 64.83522076 45.29719596 63.86914062 48.74414062 C63.25279133 50.94015671 62.63626166 53.13612217 62.01953125 55.33203125 C61.73100784 56.36004349 61.44248444 57.38805573 61.1452179 58.44721985 C60.87791367 59.39638779 60.61060944 60.34555573 60.33520508 61.32348633 C60.10078201 62.15680984 59.86635895 62.99013336 59.62483215 63.84870911 C59.12264163 65.57774607 58.56936492 67.29190523 58 69 C52.72 69 47.44 69 42 69 C41.72285156 67.15792969 41.44570312 65.31585938 41.16015625 63.41796875 C40.7944095 61.00779145 40.4285165 58.59763635 40.0625 56.1875 C39.78889648 54.36508789 39.78889648 54.36508789 39.50976562 52.50585938 C39.24389648 50.76079102 39.24389648 50.76079102 38.97265625 48.98046875 C38.81031494 47.90692139 38.64797363 46.83337402 38.48071289 45.72729492 C38.05446994 42.91882528 38.05446994 42.91882528 37 40 C34.36 49.57 31.72 59.14 29 69 C18.44 69 7.88 69 -3 69 C-3 62 -3 62 -2 60 C-6.62 60 -11.24 60 -16 60 C-16.66 61.98 -17.32 63.96 -18 66 C-18.66 66.99 -19.32 67.98 -20 69 C-22.62697064 69.22137393 -25.00893964 69.28162025 -27.625 69.1875 C-28.33140625 69.17396484 -29.0378125 69.16042969 -29.765625 69.14648438 C-31.51074128 69.1111104 -33.25546608 69.05730221 -35 69 C-24.10144762 45.66168581 -12.90006231 22.31124414 0 0 Z M0 24 C-1.50300627 27.31114413 -3.00189956 30.62413372 -4.5 33.9375 C-4.92925781 34.88302734 -5.35851562 35.82855469 -5.80078125 36.80273438 C-6.20683594 37.70185547 -6.61289062 38.60097656 -7.03125 39.52734375 C-7.40830078 40.35999756 -7.78535156 41.19265137 -8.17382812 42.05053711 C-9.0650334 43.80057141 -9.0650334 43.80057141 -9 45 C-6.36 45 -3.72 45 -1 45 C-0.01 34.605 -0.01 34.605 1 24 C0.67 24 0.34 24 0 24 Z " fill="#000000" transform="translate(35,162)"/>
<path d="M0 0 C2.83036556 -0.38666196 4.89665116 -0.48058758 7.6875 -0.3125 C9.62459839 -0.22971802 9.62459839 -0.22971802 11.60083008 -0.14526367 C12.72255615 -0.09732666 13.84428223 -0.04938965 15 0 C15.12592018 14.22618155 14.82940079 28.39734791 14.20043945 42.60986328 C14.05957993 45.81647417 13.92888357 49.02340325 13.79882812 52.23046875 C13.7115322 54.273463 13.62366466 56.31643292 13.53515625 58.359375 C13.49656998 59.3164032 13.4579837 60.2734314 13.41822815 61.25946045 C13.37826218 62.13257874 13.3382962 63.00569702 13.29711914 63.90527344 C13.26380997 64.67466248 13.23050079 65.44405151 13.19618225 66.23675537 C13 68 13 68 12 69 C9.46950598 69.07313567 6.96695163 69.09247527 4.4375 69.0625 C3.37112305 69.05573242 3.37112305 69.05573242 2.28320312 69.04882812 C0.52209987 69.03700864 -1.23896036 69.01907263 -3 69 C-3 66.36 -3 63.72 -3 61 C-7.29 60.67 -11.58 60.34 -16 60 C-16.66 61.98 -17.32 63.96 -18 66 C-18.66 66.99 -19.32 67.98 -20 69 C-22.62697064 69.22137393 -25.00893964 69.28162025 -27.625 69.1875 C-28.33140625 69.17396484 -29.0378125 69.16042969 -29.765625 69.14648438 C-31.51074128 69.1111104 -33.25546608 69.05730221 -35 69 C-33.24351384 64.31409562 -31.02080552 59.89734433 -28.78125 55.4296875 C-28.36387573 54.59398224 -27.94650146 53.75827698 -27.51647949 52.89724731 C-26.62980885 51.12322612 -25.74212963 49.34970871 -24.85351562 47.57666016 C-23.52959938 44.9340813 -22.20986036 42.28944936 -20.890625 39.64453125 C-16.51576378 30.89091731 -12.08241451 22.17123567 -7.53125 13.5078125 C-6.91449402 12.33241409 -6.91449402 12.33241409 -6.28527832 11.13327026 C-5.20197163 9.08225879 -4.10202045 7.04098933 -3 5 C-2.48526123 4.00959717 -1.97052246 3.01919434 -1.44018555 1.9987793 C-0.96492432 1.33918213 -0.48966309 0.67958496 0 0 Z M0 24 C-1.50300627 27.31114413 -3.00189956 30.62413372 -4.5 33.9375 C-4.92925781 34.88302734 -5.35851562 35.82855469 -5.80078125 36.80273438 C-6.20683594 37.70185547 -6.61289063 38.60097656 -7.03125 39.52734375 C-7.40830078 40.35999756 -7.78535156 41.19265137 -8.17382812 42.05053711 C-9.0650334 43.80057141 -9.0650334 43.80057141 -9 45 C-6.36 45 -3.72 45 -1 45 C-0.01 34.605 -0.01 34.605 1 24 C0.67 24 0.34 24 0 24 Z " fill="#000000" transform="translate(163,162)"/>
<path d="M0 0 C13.86 0 27.72 0 42 0 C39 12 39 12 38 15 C31.565 15.495 31.565 15.495 25 16 C20.05 33.49 15.1 50.98 10 69 C4.72 69 -0.56 69 -6 69 C-4.02554162 61.79146094 -2.05001381 54.58321615 -0.07348633 47.37524414 C0.59900987 44.92220018 1.27121172 42.46907551 1.94311523 40.01586914 C2.90792034 36.49344046 3.87377729 32.97130167 4.83984375 29.44921875 C5.29145119 27.79910042 5.29145119 27.79910042 5.75218201 26.11564636 C6.032397 25.09481461 6.312612 24.07398285 6.60131836 23.0222168 C6.84780624 22.12286911 7.09429413 21.22352142 7.34825134 20.29692078 C7.85311244 18.51766748 8.41513873 16.75458381 9 15 C4.71 15 0.42 15 -4 15 C-3.40656104 9.30298599 -2.10935397 5.62494392 0 0 Z " fill="#000000" transform="translate(115,162)"/>
</svg>
