<svg id="Layer_1" data-name="Layer 1" xmlns="http://www.w3.org/2000/svg" width="400" height="269" viewBox="0 0 400 269"><title>Converse-black-logo</title><path d="M13.2,310.5A11.81,11.81,0,0,0,24.9,322a11.91,11.91,0,0,0,9.1-4.4l.8-1L45.5,324l-1,1.2a25.17,25.17,0,0,1-19.6,9.2C11.2,334.3,0,323.6,0,310.5s11.2-23.8,24.9-23.8A25.35,25.35,0,0,1,44.7,296l1,1.2L35,304.6l-.8-1a12.06,12.06,0,0,0-9.2-4.5A11.55,11.55,0,0,0,13.2,310.5Zm126.7-22.6h12v44.9H138.2l-18-25.1v25.1h-12V287.9h12.3l19.4,25.3Zm56.4,0H210l-14.6,44.9H175.8l-14.6-44.9H175l10,31.9a.71.71,0,0,0,.7.5c.2,0,.7,0,.7-.5v.1ZM307,332.8H293.5l-7.7-15.6a1.62,1.62,0,0,0-1.4-.5H279v16.2H267V288h23c7.8,0,14.3,5.8,14.8,13.2a14.21,14.21,0,0,1-7.1,13.3Zm-14.7-30.5a2.48,2.48,0,0,0-2.6-2.4H279.1v4.8h10.6A2.48,2.48,0,0,0,292.3,302.3Zm71.8-14.4H400v12H376.1v4.8h21.5v10.8H376.1v5.4H400v12H364.1Zm-10,31.4v.1c0,9.5-7.9,15.1-19.2,15.1-8.2,0-16.4-2.6-22.1-7.7l7.2-8.5a24.61,24.61,0,0,0,15.2,5.6c3.4,0,5.7-1.2,5.7-3.2v-.1c0-1.9-1.8-3-8-4.4-9.9-2.2-17.7-5-17.7-14.5v-.1c0-8.6,6.7-14.8,17.8-14.8,7.9,0,13.9,2.1,18.9,6.1l-7.2,8.5c-4.5-2.7-7.9-4-12-4-3.1,0-4.4,1.3-4.4,3v.1c0,2.1,1.8,3,8.2,4.5C347.3,307.2,354.1,310.6,354.1,319.3ZM98.9,310.5c0,13.1-10.9,23.8-24.3,23.8s-24.3-10.7-24.3-23.8,10.9-23.8,24.3-23.8A24,24,0,0,1,98.9,310.5Zm-12.9,0a11.4,11.4,0,1,0-11.4,11.4A11.39,11.39,0,0,0,86,310.5Zm133.3-22.6h35.9v12H231.3v4.8h21.5v10.8H231.3v5.4h23.9v12H219.3v-45ZM150.5,149l40.3,13.1-40.3,13.1v42.4l-24.9-34.3L85.3,196.4l24.9-34.3L85.3,127.8l40.3,13.1,24.9-34.3ZM239,162.1l-88.5,96.6h75.7l88.5-96.6L226.2,65.5H150.5Z" transform="translate(0 -65.5)"/></svg>